<svg width="1179" height="957" viewBox="0 0 1179 957" fill="none" xmlns="http://www.w3.org/2000/svg">
<g opacity="0.2">
<path fill-rule="evenodd" clip-rule="evenodd" d="M263.466 13.859C292.198 -8.461 333.58 -3.271 355.9 25.461C378.211 54.184 373.012 95.573 344.28 117.893C315.557 140.205 274.168 135.006 251.856 106.283C229.537 77.551 234.743 36.171 263.466 13.859ZM270.546 22.971C246.857 41.373 242.571 75.498 260.979 99.195C279.381 122.884 313.505 127.171 337.194 108.769C360.891 90.36 365.178 56.236 346.776 32.547C328.368 8.849 294.243 4.563 270.546 22.971Z" fill="#B6CCC6"/>
<path d="M316.428 87.853L298.863 65.242L334.605 37.478C336.164 36.267 338.409 36.549 339.62 38.108C340.831 39.667 340.549 41.912 338.99 43.123L308.893 66.502L322.073 83.469C323.284 85.028 323.002 87.273 321.443 88.484C319.884 89.694 317.639 89.412 316.428 87.853Z" fill="#B6CCC6"/>
</g>
<g opacity="0.2">
<path fill-rule="evenodd" clip-rule="evenodd" d="M889.523 598.175H1149.47V83.371H889.523V598.175ZM1143.53 592.229H895.47V89.318H1143.53V592.229Z" fill="#B6CCC6"/>
</g>
<g opacity="0.2">
<rect x="900.722" y="95.95" width="237.552" height="61.1" fill="#B6CCC6"/>
<rect x="900.722" y="174.511" width="237.552" height="6.999" fill="#B6CCC6"/>
<rect x="900.722" y="162.28" width="237.552" height="6.999" fill="#B6CCC6"/>
<rect x="1119.56" y="146.214" width="1.909" height="32.133" fill="#B6CCC6"/>
<rect x="917.531" y="146.214" width="1.909" height="32.133" fill="#B6CCC6"/>
</g>
<g opacity="0.2">
<rect x="892.496" y="372.13" width="254.005" height="5.947" fill="#B6CCC6"/>
</g>
<g opacity="0.2">
<rect x="1016.53" y="375.104" width="5.947" height="219.675" fill="#B6CCC6"/>
</g>
<path opacity="0.3" fill-rule="evenodd" clip-rule="evenodd" d="M1027.83 238.125V210.577C1035.74 211.947 1042.79 221.949 1047.22 236.44C1040.99 237.469 1034.49 238.036 1027.83 238.125ZM1027.83 241.861V268.111H1051.99C1051.77 257.971 1050.43 248.392 1048.25 240.057C1041.69 241.164 1034.85 241.769 1027.83 241.861ZM1048.7 299.963C1042.05 298.815 1035.05 298.188 1027.83 298.096V271.847H1052.01C1051.94 281.948 1050.74 291.54 1048.7 299.963ZM1027.83 301.832V331.269C1036.06 329.842 1043.38 319.057 1047.75 303.592C1041.4 302.515 1034.72 301.923 1027.83 301.832ZM1024.09 238.125V210.581C1016.19 211.963 1009.14 221.96 1004.72 236.439C1010.94 237.469 1017.44 238.036 1024.09 238.125ZM1003.69 240.057C1010.24 241.163 1017.08 241.769 1024.09 241.86V268.11H999.951C1000.16 257.971 1001.51 248.392 1003.69 240.057ZM1024.09 298.096V271.847H999.929C999.999 281.948 1001.19 291.541 1003.23 299.964C1009.88 298.816 1016.88 298.189 1024.09 298.096ZM1086.4 268.111H1055.72C1055.52 257.635 1054.21 247.886 1052.03 239.374C1059.84 237.796 1066.95 235.481 1072.81 232.612C1081 242.632 1085.78 255.092 1086.4 268.111ZM1051.03 235.764C1058.22 234.329 1064.8 232.261 1070.26 229.7C1061.49 220.282 1050.03 213.977 1037.56 211.545C1043.14 216.502 1047.82 224.981 1051.03 235.764ZM1014.38 211.544C1008.79 216.501 1004.12 224.98 1000.9 235.765C993.678 234.323 987.098 232.256 981.655 229.703C990.447 220.28 1001.91 213.974 1014.38 211.544ZM999.905 239.374C992.063 237.79 984.946 235.476 979.108 232.612C970.901 242.652 966.123 255.137 965.522 268.111H996.214C996.414 257.636 997.725 247.887 999.905 239.374Z" fill="#B6CCC6"/>
<path d="M1094.82 276.658C1094.72 276.658 1094.61 276.643 1094.51 276.611C1092.21 275.897 1089.92 275.592 1089.9 275.589C1089.32 275.514 1088.91 274.985 1088.99 274.409C1089.06 273.832 1089.6 273.429 1090.17 273.5C1090.27 273.512 1092.67 273.831 1095.13 274.598C1095.69 274.772 1096 275.363 1095.82 275.918C1095.68 276.369 1095.27 276.658 1094.82 276.658Z" fill="#B6CCC6"/>
<path fill-rule="evenodd" clip-rule="evenodd" d="M1088.92 288.107L1089.16 288.121L1089.38 288.033C1093.62 286.31 1096.7 284.664 1098.53 283.139C1098.97 282.766 1099.03 282.102 1098.66 281.655C1098.29 281.207 1097.62 281.149 1097.18 281.521C1095.55 282.88 1092.73 284.384 1088.81 285.99C1087.79 285.932 1083.61 285.699 1077.27 285.394C1076.72 285.376 1076.2 285.815 1076.17 286.396C1076.14 286.977 1076.59 287.471 1077.17 287.499C1084.13 287.832 1088.49 288.082 1088.89 288.105L1088.92 288.107ZM947.102 292.32C947.222 292.364 947.346 292.385 947.467 292.385C947.896 292.385 948.299 292.121 948.456 291.696C948.815 290.723 951.452 288.299 968.124 286.831C968.703 286.78 969.132 286.269 969.081 285.689C969.03 285.11 968.522 284.677 967.939 284.732C950.389 286.278 947.251 288.876 946.479 290.966C946.277 291.512 946.556 292.117 947.102 292.32ZM1055.38 286.576C1055.37 286.576 1055.36 286.576 1055.34 286.575C1047.82 286.3 1040.48 286.078 1033.51 285.915C1032.93 285.902 1032.47 285.418 1032.49 284.837C1032.5 284.256 1032.96 283.833 1033.56 283.808C1040.54 283.972 1047.89 284.194 1055.42 284.47C1056 284.491 1056.46 284.979 1056.44 285.561C1056.41 286.129 1055.95 286.576 1055.38 286.576ZM988.793 284.716C988.806 285.289 989.275 285.745 989.846 285.745H989.871C994.91 285.628 1000.45 285.569 1006.33 285.569C1008.11 285.569 1009.89 285.574 1011.68 285.584H1011.69C1012.27 285.584 1012.74 285.116 1012.74 284.537C1012.75 283.954 1012.28 283.48 1011.7 283.477C1009.9 283.467 1008.11 283.462 1006.33 283.462C1000.43 283.462 994.877 283.522 989.822 283.638C989.24 283.651 988.779 284.134 988.793 284.716Z" fill="#B6CCC6"/>
<path d="M957.846 299.802C955.909 299.802 954.184 299.618 952.72 299.256C952.155 299.116 951.81 298.545 951.95 297.98C952.09 297.415 952.661 297.073 953.226 297.21C954.525 297.532 956.079 297.695 957.846 297.695C958.428 297.695 958.9 298.166 958.9 298.749C958.9 299.332 958.428 299.802 957.846 299.802Z" fill="#B6CCC6"/>
<path fill-rule="evenodd" clip-rule="evenodd" d="M1116.97 210.729L1051.6 224.786L1073.53 236.54L1073.37 261.424L1116.97 210.729ZM1057.79 225.66L1107.85 214.891L1074.59 234.663L1057.79 225.66ZM1075.56 255.57L1108.95 216.745L1075.69 236.512L1075.56 255.57Z" fill="#B6CCC6"/>
<path d="M1061.83 246.205C1061.42 246.205 1061.04 245.971 1060.86 245.578C1060.63 245.046 1060.87 244.423 1061.4 244.188C1064.21 242.944 1065.81 242.165 1065.83 242.158C1066.35 241.904 1066.98 242.122 1067.23 242.646C1067.49 243.169 1067.27 243.799 1066.75 244.054C1066.68 244.086 1065.1 244.855 1062.25 246.115C1062.11 246.176 1061.97 246.205 1061.83 246.205Z" fill="#B6CCC6"/>
<path fill-rule="evenodd" clip-rule="evenodd" d="M1031.39 256.638C1031.53 257.087 1031.95 257.372 1032.39 257.372C1032.5 257.372 1032.61 257.356 1032.71 257.322C1039.42 255.182 1046.24 252.723 1053 250.014C1053.54 249.797 1053.8 249.184 1053.58 248.644C1053.37 248.105 1052.76 247.838 1052.21 248.059C1045.51 250.747 1038.73 253.189 1032.07 255.314C1031.52 255.492 1031.21 256.084 1031.39 256.638ZM969.039 266.299C968.995 266.299 968.952 266.297 968.907 266.291C961.989 265.43 955.798 263.686 950.505 261.11L950.287 261.004L950.137 260.814C950.099 260.766 949.206 259.617 948.828 258.054C948.692 257.488 949.039 256.918 949.605 256.782C950.169 256.645 950.74 256.993 950.877 257.558C951.07 258.36 951.465 259.024 951.669 259.332C956.7 261.742 962.586 263.38 969.167 264.2C969.745 264.272 970.154 264.798 970.082 265.376C970.016 265.909 969.562 266.299 969.039 266.299ZM990.476 266.442C989.937 266.442 989.477 266.03 989.427 265.483C989.375 264.904 989.802 264.391 990.381 264.339C996.932 263.745 1004.02 262.604 1011.45 260.946C1012.01 260.818 1012.58 261.176 1012.7 261.744C1012.83 262.312 1012.47 262.875 1011.91 263.001C1004.39 264.679 997.212 265.835 990.571 266.437C990.54 266.441 990.508 266.442 990.476 266.442Z" fill="#B6CCC6"/>
<path d="M958.571 251.898C958.055 251.898 957.605 251.519 957.53 250.994C957.447 250.418 957.847 249.884 958.424 249.801C959.908 249.589 961.592 249.448 963.428 249.382C963.999 249.325 964.498 249.816 964.519 250.397C964.54 250.978 964.085 251.467 963.504 251.488C961.741 251.552 960.133 251.686 958.722 251.888C958.672 251.895 958.621 251.898 958.571 251.898Z" fill="#B6CCC6"/>
<path d="M487.378 819.031L516.933 857.855H283.058V883.812H858.991L888.498 863.132L653.939 857.463L615.225 819.031H487.378Z" fill="url(#paint0_linear_0_18)"/>
<path d="M615.229 808.434H487.383L500.984 791.47C511.32 778.587 516.934 762.587 516.934 746.093V627.273H585.655V746.093C585.655 762.587 591.293 778.586 601.605 791.47L615.229 808.434Z" fill="#F6F6F6"/>
<rect x="487.378" y="808.442" width="127.847" height="10.589" fill="#B6CCC6"/>
<path opacity="0.5" d="M585.654 640.602V733.136L516.933 707.74V640.602H585.654Z" fill="#B6CCC6"/>
<path d="M898.822 673.536H203.781C192.984 673.536 184.231 664.783 184.231 653.986V191.893C184.231 181.096 192.984 172.343 203.781 172.343H898.822C909.619 172.343 918.372 181.096 918.372 191.893V653.985C918.372 664.783 909.619 673.536 898.822 673.536Z" fill="#231F20"/>
<path d="M918.372 581.029H184.231V653.986C184.231 664.783 192.984 673.536 203.781 673.536H898.822C909.619 673.536 918.372 664.783 918.372 653.986V581.029Z" fill="#F6F6F6"/>
<rect x="201.355" y="189.127" width="699.893" height="376.17" fill="url(#paint1_linear_0_18)"/>
<path d="M551.302 646.106C561.698 646.106 570.126 637.678 570.126 627.282C570.126 616.886 561.698 608.458 551.302 608.458C540.906 608.458 532.478 616.886 532.478 627.282C532.478 637.678 540.906 646.106 551.302 646.106Z" fill="white"/>
<path d="M113.62 604.783C113.62 604.783 45.104 697.595 84.184 741.898C123.264 786.201 132.794 741.898 132.794 741.898C132.794 741.898 171.142 724.874 113.62 604.783Z" fill="url(#paint2_linear_0_18)"/>
<path d="M70.735 617.553C70.735 617.553 22.701 726.291 91.779 745.652C160.857 765.013 76.879 654.953 70.735 617.553Z" fill="url(#paint3_linear_0_18)"/>
<path d="M111.706 741.052C111.706 741.052 90.703 700.604 160.239 625.32C160.238 625.319 190.432 729.99 111.706 741.052Z" fill="url(#paint4_linear_0_18)"/>
<path d="M29.098 650.216C29.098 650.216 96.358 670.883 121.223 725.202C146.088 779.521 78.742 752.66 78.742 752.66C78.742 752.66 28.565 723.89 29.098 650.216Z" fill="url(#paint5_linear_0_18)"/>
<path d="M182.74 644.083C182.74 644.083 103.859 686.049 106.969 740.676C110.08 795.302 193.841 710.842 182.74 644.083Z" fill="url(#paint6_linear_0_18)"/>
<path d="M211.81 811.713L166.832 861.488H44.978L0 811.713L44.978 727.471H166.832L211.81 811.713Z" fill="#F6F6F6"/>
<path d="M211.81 811.713L166.831 861.488H44.978C160.814 854.365 166.831 727.471 166.831 727.471L211.81 811.713Z" fill="#B6CCC6"/>
<path d="M551.505 266.51V540.425C551.505 540.425 432.995 499.058 382.684 499.058V229.615C382.684 229.615 384.942 229.011 389.526 228.475C407.28 226.418 459.961 225.636 551.505 266.51Z" fill="#F6F6F6"/>
<path d="M551.505 266.51V535.908C547.167 534.298 438.831 494.586 389.526 494.586V228.475C407.28 226.418 459.961 225.636 551.505 266.51Z" fill="#B6CCC6"/>
<path d="M551.505 259.623V533.538C551.505 533.538 443.124 492.35 392.813 492.35V222.907C392.813 222.907 394.982 222.169 399.633 221.61C415.822 219.643 462.063 219.665 551.505 259.623Z" fill="#F6F6F6"/>
<path d="M551.572 529.535C551.572 529.535 551.55 529.535 551.505 529.513C548.419 528.238 449.162 487.878 399.633 487.878V221.61C415.822 219.643 462.064 219.665 551.505 259.623L551.572 529.535Z" fill="#B6CCC6"/>
<path d="M551.562 252.714V526.629C551.562 526.629 453.176 485.262 402.865 485.262V215.819C402.865 215.819 436.406 201.285 551.562 252.714Z" fill="#F6F6F6"/>
<path d="M551.108 266.586V540.5C551.108 540.5 669.618 499.133 719.929 499.133V229.691C719.929 229.691 717.671 229.087 713.087 228.551C695.332 226.494 642.651 225.711 551.108 266.586Z" fill="#F6F6F6"/>
<path d="M551.108 266.586V535.984C555.446 534.374 663.782 494.662 713.087 494.662V228.551C695.332 226.494 642.651 225.711 551.108 266.586Z" fill="#B6CCC6"/>
<path d="M551.108 259.699V533.614C551.108 533.614 659.489 492.426 709.8 492.426V222.983C709.8 222.983 707.631 222.245 702.98 221.686C686.791 219.718 640.549 219.741 551.108 259.699Z" fill="#F6F6F6"/>
<path d="M551.041 529.611C551.041 529.611 551.063 529.611 551.108 529.589C554.194 528.314 653.452 487.954 702.98 487.954V221.686C686.791 219.719 640.549 219.741 551.108 259.699L551.041 529.611Z" fill="#B6CCC6"/>
<path d="M699.756 215.895V485.338C659.731 485.338 589.274 511.522 562.15 522.233C555.174 524.983 551.059 526.705 551.059 526.705V252.789C666.216 201.36 699.756 215.895 699.756 215.895Z" fill="#F6F6F6"/>
<path opacity="0.6" d="M699.756 228.864V485.337C659.731 485.337 589.274 511.521 562.15 522.232C619.349 475.7 677.083 302.832 699.756 228.864Z" fill="#B6CCC6"/>
<path d="M667.74 328.102L575.317 356.936V292.326L667.74 263.493V328.102Z" fill="url(#paint7_linear_0_18)"/>
<path d="M667.74 333.555L575.317 362.624V365.88L667.74 336.811V333.555Z" fill="url(#paint8_linear_0_18)"/>
<path d="M667.74 340.773L575.317 369.842V373.098L667.74 344.03V340.773Z" fill="url(#paint9_linear_0_18)"/>
<path d="M667.74 348.228L575.317 377.297V380.553L667.74 351.485V348.228Z" fill="url(#paint10_linear_0_18)"/>
<path d="M667.74 355.387L575.317 384.455V387.711L667.74 358.643V355.387Z" fill="url(#paint11_linear_0_18)"/>
<rect x="551.051" y="252.79" width="0.521" height="273.915" fill="#B6CCC6"/>
<path d="M1079.6 830.031C1079 830.239 1078.37 830.334 1077.77 830.334C1075.4 830.334 1073.2 828.858 1072.39 826.491C1071.37 823.519 1072.96 820.3 1075.93 819.278C1076.01 819.259 1077.14 818.861 1079.02 818.104C1090.53 813.542 1129.96 795.802 1123.39 769.885C1121.84 763.789 1118.89 756.197 1113.55 754.531C1107.87 752.789 1100.43 757.863 1098.02 759.965C1096.04 761.707 1093.18 761.82 1091.08 760.4C1090.7 760.154 1090.34 759.832 1090.02 759.472C1087.95 757.124 1088.14 753.546 1090.49 751.464C1091.83 750.253 1104.08 739.783 1116.84 743.664C1125.19 746.219 1131.1 754.095 1134.41 767.101C1144.62 807.332 1082.25 829.122 1079.6 830.031Z" fill="#F6F6F6"/>
<path opacity="0.6" d="M1127.69 775.469C1127.45 778.303 1124.65 790.254 1115.86 799.29C1106.31 809.107 1076.96 823.187 1076.96 823.187L1079.01 818.104C1090.53 813.542 1129.96 795.802 1123.39 769.885C1121.84 763.789 1118.88 756.197 1113.55 754.531C1107.87 752.789 1100.43 757.863 1098.02 759.965C1096.03 761.707 1093.17 761.82 1091.07 760.4C1097.13 755.629 1108.85 747.924 1116.95 752.43C1128.31 758.734 1127.88 773.262 1127.69 775.469Z" fill="#B6CCC6"/>
<path d="M1053.7 851.348H993.425C992.971 851.064 992.516 850.78 992.081 850.477C991.74 850.25 991.399 850.023 991.059 849.776C944.449 817.403 951.775 722.535 951.775 722.535H1095.35C1095.35 722.536 1102.93 820.584 1053.7 851.348Z" fill="#F6F6F6"/>
<path d="M1023.72 851.348H1023.42H993.425V861.761H1023.42H1023.72H1053.71V851.348H1023.72Z" fill="#B6CCC6"/>
<path d="M1095.05 722.536C1095.05 724.334 1089.2 725.982 1079.45 727.269C1066.33 729.03 1046.11 730.147 1023.41 730.147C1000.83 730.147 980.665 729.03 967.545 727.307C957.681 726.001 951.794 724.335 951.794 722.536C951.794 718.352 983.864 714.944 1023.41 714.944C1062.98 714.944 1095.05 718.352 1095.05 722.536Z" fill="#B6CCC6"/>
<path d="M1079.45 727.269C1066.33 729.03 1046.11 730.147 1023.41 730.147C1000.83 730.147 980.665 729.03 967.545 727.307C980.665 725.546 1000.88 724.429 1023.56 724.429C1046.17 724.429 1066.33 725.546 1079.45 727.269Z" fill="#B17F4A"/>
<path opacity="0.6" d="M1053.7 851.348H994.996L992.08 850.477L988.691 849.455C989.486 849.569 990.262 849.682 991.057 849.777C1067.83 858.505 1095.35 722.536 1095.35 722.536C1095.35 722.536 1102.93 820.584 1053.7 851.348Z" fill="#B6CCC6"/>
<path d="M1131.36 870.288L1167.52 910.182H1173.05C1173.05 910.182 1181.04 924.415 1176.88 953.582C1176.88 953.582 971.377 954.261 962.881 956.205C954.385 958.149 956.438 917.316 956.438 917.316H962.881L929.877 870.287H1131.36V870.288Z" fill="url(#paint12_linear_0_18)"/>
<path d="M1143.03 861.761H919.765C918.728 861.761 917.888 860.921 917.888 859.884V857.338C917.888 856.301 918.728 855.461 919.765 855.461H1143.03C1144.07 855.461 1144.91 856.301 1144.91 857.338V859.884C1144.91 860.92 1144.07 861.761 1143.03 861.761Z" fill="#F6F6F6"/>
<path d="M1130.89 870.288H928.885C926.078 870.288 923.803 868.013 923.803 865.206V861.76H1135.98V865.206C1135.98 868.013 1133.7 870.288 1130.89 870.288Z" fill="#B6CCC6"/>
<path d="M746.256 588.947L737.713 570.138L752.256 574.626L756.259 582.547L766.202 588.03C766.202 588.03 778.307 597.795 795.142 587.779C802.046 583.664 809.753 576.228 817.753 563.413C817.763 563.403 817.763 563.403 817.763 563.403L832.562 557.659L837.93 538.424L850.394 546.144L850.171 556.887L872.375 568.313C872.375 568.313 914.611 652.628 888.772 698.665L890.422 709.266L894.735 705.632V711.919L880.813 717.225L873.533 703.637L872.865 680.451H817.219L807.61 672.503L814.795 619.531L815.557 613.87C815.557 613.87 809.552 618.183 801.301 620.962C787.146 625.748 766.387 626.012 758.116 592.155L746.256 588.947Z" fill="url(#paint13_linear_0_18)"/>
<path d="M822.518 830.509V880.536H779.123L811.583 866.624L811.897 862.311L814.236 830.509H822.518Z" fill="url(#paint14_linear_0_18)"/>
<path d="M822.518 862.311V880.536H779.123L811.583 866.624L811.897 862.311H822.518Z" fill="#1D1D1B"/>
<path d="M866.246 830.509V880.536H909.641L877.181 866.624L876.867 862.311L874.528 830.509H866.246Z" fill="url(#paint15_linear_0_18)"/>
<path d="M807.609 672.497L817.215 680.457H872.863L882.143 671.828L877.168 661.57L872.393 568.727C872.374 568.456 872.374 568.311 872.374 568.311L850.176 556.896C842.397 583.381 832.556 557.656 832.556 557.656L817.775 563.409L815.568 613.865L807.609 672.497Z" fill="#F6F6F6"/>
<path d="M804.965 835.48L817.221 680.449H872.869L883.513 835.48L860.325 844.425L844.239 689.813L828.153 844.425L804.965 835.48Z" fill="#B58959"/>
<path d="M866.246 862.311V880.536H909.641L877.181 866.624L876.867 862.311H866.246Z" fill="#1D1D1B"/>
<path d="M862.692 531.636C861.877 531.08 860.988 530.709 860.067 530.495C860.26 525.251 858.083 520.25 853.765 517.302C846.715 512.49 836.641 514.974 831.264 522.852C830.085 524.579 829.23 526.422 828.687 528.298C828.253 530.038 823.992 531.125 823.992 531.125C823.992 531.125 825.657 533.09 827.977 533.143C827.647 538.54 829.858 542.802 834.292 545.829C839.072 549.092 845.242 548.996 850.396 546.143C850.826 546.64 851.316 547.093 851.879 547.478C855.794 550.15 861.388 548.77 864.374 544.396C867.36 540.021 866.607 534.308 862.692 531.636Z" fill="url(#paint16_linear_0_18)"/>
<path d="M831.805 529.944C832.143 529.125 832.161 528.355 831.845 528.225C831.529 528.094 830.999 528.652 830.66 529.471C830.322 530.29 830.304 531.06 830.62 531.19C830.936 531.32 831.467 530.763 831.805 529.944Z" fill="#1D1D1B"/>
<path d="M860.067 530.495L850.862 539.858L852.277 532.852L848.069 530.557L847.113 526.732C847.113 526.732 827.221 525.236 823.992 517.551C818.986 505.636 826.909 513.8 831.235 512.769C836.882 511.423 847.309 506.32 854.572 510.991C871.021 521.568 865.371 529.77 862.692 531.637L860.067 530.495Z" fill="#1D1D1B"/>
<path opacity="0.5" d="M817.215 680.457H872.863L882.143 671.828L877.168 661.57L872.393 568.727C872.592 574.552 874.672 639.644 862.605 645.126C849.977 650.861 857.449 668.988 848.258 669.965C839.087 670.941 817.215 680.457 817.215 680.457Z" fill="#B6CCC6"/>
<path d="M817.215 680.457L873.951 696.207L872.863 680.457H817.215Z" fill="#8C6246"/>
<path d="M844.239 689.813L822.387 842.201L828.153 844.425L844.239 689.813Z" fill="#8C6246"/>
<path d="M425.769 703.427C451.053 658.391 409.737 575.917 409.737 575.917L394.727 564.457L398.449 552.764L382.684 554.352L377.355 564.737L355.631 575.917C355.631 575.917 314.314 658.391 339.599 703.427L337.966 713.79L333.748 710.253V716.398L347.377 721.591L354.497 708.302L355.155 685.625H382.684H410.213L410.871 708.302L417.991 721.591L431.62 716.398V710.253L427.402 713.79L425.769 703.427Z" fill="url(#paint17_linear_0_18)"/>
<path d="M355.79 574.882L353.651 616.417L353.245 624.141C346.332 625.911 333.925 615.55 333.925 615.55L351.125 583.583C351.144 583.546 351.144 583.528 351.144 583.528L355.79 574.882Z" fill="#F6F6F6"/>
<path d="M421.725 836.214L409.736 684.566H355.303L344.891 836.214L367.573 844.963L383.308 693.725L399.043 844.963L421.725 836.214Z" fill="#B58959"/>
<path d="M430.066 610.389C430.066 610.389 424.683 614.887 419.024 617.45C416.093 618.777 413.106 619.588 410.747 618.98L409.641 584.119L409.198 570.071L430.066 610.389Z" fill="#F6F6F6"/>
<path d="M368.846 877.885H351.566L355.784 863.439V840.423L367.576 844.958L368.279 863.439L368.846 877.885Z" fill="url(#paint18_linear_0_18)"/>
<path d="M415.197 877.885H397.94L398.484 863.439L399.187 844.958L410.979 840.423V863.439L415.197 877.885Z" fill="url(#paint19_linear_0_18)"/>
<path d="M368.279 863.439L368.846 877.885H351.566L355.784 863.439H368.279Z" fill="#1D1D1B"/>
<path opacity="0.5" d="M419.024 617.45C416.093 618.777 413.106 619.588 410.747 618.98L409.641 584.119L409.788 583.529L419.024 617.45Z" fill="#B6CCC6"/>
<path d="M415.197 877.885H397.94L398.484 863.439H410.979L415.197 877.885Z" fill="#1D1D1B"/>
<path d="M419.134 676.793L409.732 684.573H355.311L346.223 676.148L351.089 666.101L355.791 574.882L369.47 566.328C378.079 560.945 388.864 560.336 398.045 564.724L409.198 570.07L411.355 619.44L419.134 676.793Z" fill="#F6F6F6"/>
<path d="M404.212 541.177L401.356 539.623L394.649 519.75C336.723 517.971 384.854 557.623 384.854 557.623L392.055 557.318C399.586 556.999 404.704 549.541 402.293 542.399L404.212 541.177Z" fill="url(#paint20_linear_0_18)"/>
<path d="M402.721 504.202C405.666 515.809 404.868 527.709 391.761 531.898L394.142 540.425C394.142 540.425 391.761 531.898 382.684 535.908C376.281 538.736 375.821 552.764 392.571 550.726L384.854 557.624L363.305 559.908C357.276 560.547 351.294 558.306 347.181 553.852C339.531 545.567 335.863 541.136 335.247 531.648C334.765 524.227 340.113 513.566 345.31 505.104C352.953 492.658 367.628 486.018 381.852 489.337C391.907 491.682 400.867 496.897 402.721 504.202Z" fill="#1D1D1B"/>
<path opacity="0.5" d="M408.46 684.573H355.31L346.222 676.148L351.088 666.101L355.79 574.882C355.79 574.882 361.006 630.797 371.533 637.175C382.06 643.572 365.302 670.064 378.945 670.064C392.181 670.064 395.131 684.149 408.46 684.573Z" fill="#B6CCC6"/>
<path opacity="0.5" d="M353.652 616.417L353.246 624.141C346.333 625.911 333.926 615.55 333.926 615.55L351.126 583.583C350.758 584.781 343.973 607.07 346.223 612.379C347.347 615.034 350.702 614.924 353.652 616.417Z" fill="#B6CCC6"/>
<path d="M383.308 693.725H369.674L375.077 772.836L383.308 693.725Z" fill="#8C6246"/>
<path d="M372.312 684.566L354.674 693.725L355.311 684.573L372.312 684.566Z" fill="#8C6246"/>
<path d="M398.904 538.878C399.143 538.836 399.221 538.143 399.079 537.33C398.936 536.516 398.627 535.891 398.389 535.933C398.15 535.974 398.072 536.668 398.214 537.481C398.356 538.294 398.665 538.92 398.904 538.878Z" fill="#1D1D1B"/>
<path d="M162.939 882.339H135.382L128.248 866.782L135.709 859.003L145.594 813.61L152.564 832.417L140.575 864.186L146.084 874.56L162.939 882.339Z" fill="url(#paint21_linear_0_18)"/>
<path d="M211.89 882.339H169.42L173.314 874.888V832.734L186.285 824.639L182.718 871.32L194.063 875.531L211.89 882.339Z" fill="url(#paint22_linear_0_18)"/>
<path d="M160.995 678.626L128.25 824.31L154.835 842.465L192.089 682.309L160.995 678.626Z" fill="#B58959"/>
<path d="M160.169 682.298L162.28 810.459L186.066 688.883L160.169 682.298Z" fill="#8C6246"/>
<path d="M167.161 678.626L164.237 843.924L192.089 831.604V682.309L167.161 678.626Z" fill="#CA9E67"/>
<path d="M182.693 681.196V835.76L179.58 837.137V681.196H182.693Z" fill="#B58959"/>
<path d="M190.603 557.815C190.603 557.815 190.093 561.381 189.161 568.838C188.229 576.295 176.153 557.815 176.153 557.815L182.808 535.673L190.603 557.815Z" fill="url(#paint23_linear_0_18)"/>
<path d="M176.152 557.815C176.152 557.815 169.451 557.815 163.71 561.705C157.969 565.595 146.406 678.742 147.379 678.742C147.972 678.742 163.365 683.199 175.296 686.679C183.836 689.17 193.049 686.74 199.251 680.363L190.603 557.814C190.603 557.815 189.688 573.053 176.152 557.815Z" fill="#F6F6F6"/>
<path d="M146.084 874.56L162.939 882.339H135.382L128.248 866.782L135.709 859.003L140.575 864.186L146.084 874.56Z" fill="#1D1D1B"/>
<path d="M211.89 882.339H169.42L173.314 874.888V872.945L182.718 871.32L194.063 875.531L211.89 882.339Z" fill="#1D1D1B"/>
<path d="M176.152 566.877L173.286 620.545L195.402 690.749L187.575 711.661H178.163L184.344 704.566L186.066 688.882L157.063 622.784L162.34 571.331C162.951 565.378 169.764 562.305 174.631 565.788L176.152 566.877Z" fill="url(#paint24_linear_0_18)"/>
<path d="M169.395 531.572C170.273 531.244 171.178 531.104 172.076 531.116C173.09 526.235 176.236 522.116 180.889 520.379C188.486 517.543 197.214 522.125 200.384 530.614C201.079 532.475 201.449 534.37 201.523 536.223C201.528 537.927 205.212 539.898 205.212 539.898C205.212 539.898 203.229 541.332 201.077 540.854C200.154 545.908 197.146 549.336 192.367 551.121C187.215 553.044 181.546 551.553 177.44 547.749C176.93 548.11 176.375 548.416 175.768 548.643C171.549 550.218 166.703 547.673 164.943 542.959C163.183 538.246 165.176 533.147 169.395 531.572Z" fill="url(#paint25_linear_0_18)"/>
<path d="M221.993 501.093C240.554 508.258 242.772 530.354 182.087 533.422L181.692 541.099C181.692 541.099 176.242 530.106 173.267 530.672C170.292 531.238 166.839 531.08 164.456 538.497C161.059 535.502 160.613 530.368 163.449 526.837C173.737 514.026 206.301 495.035 221.993 501.093Z" fill="#1D1D1B"/>
<path d="M199.058 538.498C199.379 538.449 199.537 537.735 199.412 536.903C199.286 536.071 198.924 535.435 198.603 535.484C198.281 535.532 198.123 536.246 198.249 537.079C198.375 537.911 198.737 538.546 199.058 538.498Z" fill="#1D1D1B"/>
<defs>
<linearGradient id="paint0_linear_0_18" x1="1180.6" y1="916.838" x2="1180.64" y2="789.251" gradientUnits="userSpaceOnUse">
<stop stop-color="white" stop-opacity="0.01"/>
<stop offset="1" stop-color="#B6CCC6"/>
</linearGradient>
<linearGradient id="paint1_linear_0_18" x1="1060.55" y1="622.925" x2="1063.95" y2="69.9152" gradientUnits="userSpaceOnUse">
<stop stop-color="#71A896"/>
<stop offset="1" stop-color="#3E8383"/>
</linearGradient>
<linearGradient id="paint2_linear_0_18" x1="82.7134" y1="618.945" x2="100.588" y2="710.82" gradientUnits="userSpaceOnUse">
<stop stop-color="#F7C9AA"/>
<stop offset="1" stop-color="#FF717A"/>
</linearGradient>
<linearGradient id="paint3_linear_0_18" x1="87.2792" y1="624.51" x2="46.2799" y2="662.64" gradientUnits="userSpaceOnUse">
<stop stop-color="#F7C9AA"/>
<stop offset="1" stop-color="#FF717A"/>
</linearGradient>
<linearGradient id="paint4_linear_0_18" x1="100.708" y1="666.946" x2="150.564" y2="695.828" gradientUnits="userSpaceOnUse">
<stop stop-color="#F7C9AA"/>
<stop offset="1" stop-color="#FF717A"/>
</linearGradient>
<linearGradient id="paint5_linear_0_18" x1="37.9645" y1="716.806" x2="86.0801" y2="760.351" gradientUnits="userSpaceOnUse">
<stop stop-color="#F7C9AA"/>
<stop offset="1" stop-color="#FF717A"/>
</linearGradient>
<linearGradient id="paint6_linear_0_18" x1="152.273" y1="620.872" x2="75.4428" y2="664.679" gradientUnits="userSpaceOnUse">
<stop stop-color="#F7C9AA"/>
<stop offset="1" stop-color="#FF717A"/>
</linearGradient>
<linearGradient id="paint7_linear_0_18" x1="725.762" y1="298.568" x2="685.402" y2="295.197" gradientUnits="userSpaceOnUse">
<stop stop-color="#71A896"/>
<stop offset="1" stop-color="#3E8383"/>
</linearGradient>
<linearGradient id="paint8_linear_0_18" x1="723.065" y1="351.32" x2="695.895" y2="332.359" gradientUnits="userSpaceOnUse">
<stop stop-color="#71A896"/>
<stop offset="1" stop-color="#3E8383"/>
</linearGradient>
<linearGradient id="paint9_linear_0_18" x1="723.065" y1="358.538" x2="695.895" y2="339.577" gradientUnits="userSpaceOnUse">
<stop stop-color="#71A896"/>
<stop offset="1" stop-color="#3E8383"/>
</linearGradient>
<linearGradient id="paint10_linear_0_18" x1="723.065" y1="365.993" x2="695.895" y2="347.032" gradientUnits="userSpaceOnUse">
<stop stop-color="#71A896"/>
<stop offset="1" stop-color="#3E8383"/>
</linearGradient>
<linearGradient id="paint11_linear_0_18" x1="723.066" y1="373.152" x2="695.896" y2="354.19" gradientUnits="userSpaceOnUse">
<stop stop-color="#71A896"/>
<stop offset="1" stop-color="#3E8383"/>
</linearGradient>
<linearGradient id="paint12_linear_0_18" x1="1354.92" y1="972.528" x2="1354.92" y2="764.015" gradientUnits="userSpaceOnUse">
<stop stop-color="white" stop-opacity="0.01"/>
<stop offset="1" stop-color="#B6CCC6"/>
</linearGradient>
<linearGradient id="paint13_linear_0_18" x1="877.524" y1="634.463" x2="894.877" y2="500.74" gradientUnits="userSpaceOnUse">
<stop stop-color="#F7C9AA"/>
<stop offset="1" stop-color="#FF717A"/>
</linearGradient>
<linearGradient id="paint14_linear_0_18" x1="820.385" y1="874.392" x2="819.008" y2="830.35" gradientUnits="userSpaceOnUse">
<stop stop-color="#F7C9AA"/>
<stop offset="1" stop-color="#FF717A"/>
</linearGradient>
<linearGradient id="paint15_linear_0_18" x1="906.871" y1="872.356" x2="905.493" y2="828.314" gradientUnits="userSpaceOnUse">
<stop stop-color="#F7C9AA"/>
<stop offset="1" stop-color="#FF717A"/>
</linearGradient>
<linearGradient id="paint16_linear_0_18" x1="856.228" y1="547.856" x2="864.434" y2="522.965" gradientUnits="userSpaceOnUse">
<stop stop-color="#F7C9AA"/>
<stop offset="1" stop-color="#FF717A"/>
</linearGradient>
<linearGradient id="paint17_linear_0_18" x1="442.335" y1="653.984" x2="467.742" y2="463.076" gradientUnits="userSpaceOnUse">
<stop stop-color="#F7C9AA"/>
<stop offset="1" stop-color="#FF717A"/>
</linearGradient>
<linearGradient id="paint18_linear_0_18" x1="368.017" y1="873.499" x2="363.572" y2="839.686" gradientUnits="userSpaceOnUse">
<stop stop-color="#F7C9AA"/>
<stop offset="1" stop-color="#FF717A"/>
</linearGradient>
<linearGradient id="paint19_linear_0_18" x1="414.332" y1="872.202" x2="409.876" y2="838.392" gradientUnits="userSpaceOnUse">
<stop stop-color="#F7C9AA"/>
<stop offset="1" stop-color="#FF717A"/>
</linearGradient>
<linearGradient id="paint20_linear_0_18" x1="368.309" y1="574.427" x2="364.896" y2="590.457" gradientUnits="userSpaceOnUse">
<stop stop-color="#F7C9AA"/>
<stop offset="1" stop-color="#FF717A"/>
</linearGradient>
<linearGradient id="paint21_linear_0_18" x1="165.303" y1="862.242" x2="162.802" y2="783.826" gradientUnits="userSpaceOnUse">
<stop stop-color="#F7C9AA"/>
<stop offset="1" stop-color="#FF717A"/>
</linearGradient>
<linearGradient id="paint22_linear_0_18" x1="219.374" y1="862.075" x2="218.197" y2="783.607" gradientUnits="userSpaceOnUse">
<stop stop-color="#F7C9AA"/>
<stop offset="1" stop-color="#FF717A"/>
</linearGradient>
<linearGradient id="paint23_linear_0_18" x1="171.592" y1="600.724" x2="203.961" y2="597.509" gradientUnits="userSpaceOnUse">
<stop stop-color="#F7C9AA"/>
<stop offset="1" stop-color="#FF717A"/>
</linearGradient>
<linearGradient id="paint24_linear_0_18" x1="197.55" y1="579.951" x2="132.347" y2="564.058" gradientUnits="userSpaceOnUse">
<stop stop-color="#F7C9AA"/>
<stop offset="1" stop-color="#FF717A"/>
</linearGradient>
<linearGradient id="paint25_linear_0_18" x1="202.021" y1="545.125" x2="198.391" y2="520.288" gradientUnits="userSpaceOnUse">
<stop stop-color="#F7C9AA"/>
<stop offset="1" stop-color="#FF717A"/>
</linearGradient>
</defs>
</svg>
